<?xml version="1.0" encoding="UTF-8"?>
<svg xmlns="http://www.w3.org/2000/svg" viewBox="0 0 1588 2036" preserveAspectRatio="xMidYMid meet" role="img" aria-label="Alshendawi — Luxury, Heritage, Excellence" style="color: #35343c;">
<title>Alshendawi</title>
<g transform="translate(0.000000,2036.000000) scale(0.100000,-0.100000)"
fill="currentColor" stroke="none">
<path d="M7960 19946 c0 -32 -70 -252 -109 -344 -42 -97 -95 -192 -144 -255
l-30 -38 -106 1 c-58 1 -145 1 -193 1 l-88 -1 0 -192 -1 -193 -47 -35 c-87
-64 -171 -118 -282 -180 -60 -34 -110 -63 -110 -65 0 -2 46 -30 103 -61 115
-64 231 -140 295 -191 l42 -34 0 -200 0 -199 203 0 202 -1 51 -77 c29 -42 66
-103 84 -134 l32 -58 -35 -47 c-80 -109 -293 -292 -321 -276 -8 4 -68 57 -135
116 -106 95 -246 245 -321 346 -14 18 -35 45 -46 59 -45 57 -114 171 -157 262
-78 164 -117 301 -133 458 l-7 72 -128 0 -128 0 -34 -57 c-123 -206 -179 -462
-157 -726 5 -67 14 -138 20 -157 5 -19 10 -36 10 -37 0 -2 -340 -3 -755 -3
l-755 0 0 -388 0 -388 -82 -24 c-101 -28 -235 -83 -307 -126 -210 -126 -419
-359 -520 -580 -30 -66 -78 -222 -92 -302 -11 -67 -14 -73 -33 -67 -12 4 -164
9 -339 12 l-317 5 -1 -93 c-3 -302 3 -3444 6 -3447 2 -2 16 19 32 47 15 29 52
92 81 141 l52 90 0 1160 0 1160 24 6 c13 3 62 -2 109 -10 190 -36 331 -108
464 -237 136 -132 227 -310 253 -498 6 -45 10 -364 10 -833 0 -419 1 -763 4
-765 2 -2 16 29 31 69 127 338 375 643 685 843 288 186 566 296 932 369 181
36 278 47 506 60 l206 11 -2 185 c-10 696 133 1149 514 1630 83 105 364 387
499 501 133 113 306 250 495 391 85 64 218 169 295 234 77 64 164 134 192 155
l53 40 107 -78 c60 -42 151 -111 204 -152 53 -42 134 -105 180 -141 131 -101
471 -447 571 -580 230 -308 356 -542 459 -850 88 -264 144 -528 156 -732 4
-69 10 -108 17 -107 6 0 62 19 125 42 l114 42 23 60 c79 209 215 403 392 558
52 45 98 83 103 85 5 2 9 -105 9 -257 0 -144 3 -261 8 -260 4 0 41 12 82 27
l75 27 5 294 5 295 120 59 c379 189 714 268 1192 284 l202 6 3 -414 3 -414 73
-163 c39 -89 72 -168 72 -175 0 -7 6 -21 13 -31 11 -14 13 105 14 674 l1 692
-326 -4 c-180 -3 -333 -7 -341 -9 -10 -3 -20 23 -37 101 -27 126 -52 198 -100
293 -170 336 -459 581 -805 681 l-84 24 -3 386 -2 386 -751 0 -751 0 5 33 c21
120 29 315 19 410 -18 162 -88 373 -165 495 l-27 42 -129 0 -128 0 -7 -94
c-16 -231 -156 -540 -357 -791 -196 -245 -437 -451 -1064 -910 -97 -71 -207
-154 -244 -182 -36 -29 -136 -107 -221 -174 -228 -180 -568 -526 -701 -713
-141 -200 -296 -489 -352 -656 -95 -282 -146 -603 -147 -918 0 -121 -3 -164
-12 -167 -7 -3 -83 -14 -168 -25 -85 -11 -170 -24 -189 -30 -19 -5 -37 -7 -40
-4 -8 8 -1 386 9 509 22 248 66 461 145 700 106 323 235 565 450 849 254 337
520 575 1135 1018 374 269 529 441 756 835 l18 33 205 2 206 3 -4 197 -3 197
81 60 c91 67 230 155 309 195 29 14 52 30 51 34 0 4 -28 21 -62 37 -81 40
-243 141 -317 198 l-60 47 -2 190 -3 190 -185 2 c-102 1 -191 3 -197 6 -7 2
-42 51 -79 108 -71 111 -122 230 -177 411 -33 111 -47 143 -47 109z m46 -593
c15 -27 56 -87 92 -135 l64 -88 152 0 152 0 -4 -148 -4 -148 38 -31 c22 -16
82 -59 135 -95 l97 -65 -47 -35 c-25 -19 -85 -63 -133 -97 -49 -34 -88 -67
-89 -74 0 -7 0 -74 1 -149 l1 -138 -153 0 -153 0 -68 -103 c-37 -56 -78 -120
-91 -141 l-24 -39 -13 25 c-8 14 -50 77 -94 142 l-80 116 -152 0 -152 0 -3
152 -3 153 -75 53 c-165 116 -186 134 -167 146 10 6 68 47 130 91 l112 80 3
153 3 152 149 0 149 0 58 83 c32 45 74 106 93 134 19 29 38 53 42 53 3 0 19
-21 34 -47z m1479 -1103 c24 -82 27 -114 27 -235 1 -90 -5 -170 -16 -224 -9
-47 -18 -86 -20 -88 -2 -2 -75 -2 -164 -1 l-160 3 69 110 c38 61 89 151 113
200 45 92 116 288 116 321 0 30 7 12 35 -86z m-2878 -245 c47 -92 127 -229
154 -264 11 -13 19 -28 19 -32 0 -5 -70 -9 -155 -9 -179 0 -163 -11 -185 120
-25 142 -14 329 26 467 l17 57 42 -130 c23 -71 60 -165 82 -209z m-1284 -484
l227 -1 -2 -1257 c-1 -692 -4 -1305 -7 -1363 l-6 -104 -33 62 c-86 161 -269
361 -447 488 l-100 71 -3 1044 c-1 574 0 1049 2 1054 2 6 34 10 72 9 38 -1
171 -2 297 -3z m1711 -113 c61 -63 141 -142 178 -175 l66 -61 -128 -96 c-70
-52 -135 -98 -144 -102 -11 -4 -41 10 -84 39 -128 85 -243 128 -393 148 -267
34 -588 -89 -752 -289 -22 -26 -43 -48 -48 -50 -5 -2 -9 145 -9 350 l0 354
601 -2 601 -1 112 -115z m3186 -233 l0 -350 -53 56 c-232 251 -610 349 -927
242 -78 -26 -201 -89 -257 -129 -17 -13 -35 -24 -39 -24 -4 0 -57 38 -118 83
-61 46 -123 92 -138 101 l-26 17 109 100 c59 55 138 133 175 174 l67 75 246 2
c135 2 407 3 604 3 l357 0 0 -350z m768 -705 l2 -1049 -107 -80 c-174 -128
-346 -315 -440 -476 -21 -36 -41 -65 -45 -65 -9 0 -11 2714 -3 2722 3 3 137 3
298 1 l292 -4 3 -1049z m-4343 486 c81 -28 173 -75 194 -99 8 -11 -10 -30 -81
-88 -126 -102 -398 -373 -495 -494 -220 -275 -377 -541 -498 -845 -21 -52 -39
-97 -42 -100 -2 -2 -3 241 -1 540 l3 545 27 73 c94 258 282 430 533 488 96 22
262 13 360 -20z m3085 1 c196 -64 358 -218 441 -418 15 -38 33 -95 39 -126 12
-69 14 -1071 1 -1057 -4 5 -25 52 -46 104 -76 193 -208 436 -333 615 -147 210
-370 455 -602 658 -69 60 -125 115 -125 121 0 28 194 115 290 130 17 2 82 3
145 1 89 -2 132 -9 190 -28z m-4950 -827 c0 -335 -3 -610 -6 -610 -4 0 -28 13
-54 29 -133 82 -464 192 -723 242 -66 12 -65 -6 -15 174 81 296 289 548 573
693 67 34 186 79 213 81 9 1 12 -127 12 -609z m6471 591 c148 -50 297 -146
420 -270 105 -105 161 -182 219 -299 46 -94 97 -251 101 -312 l4 -44 -45 -8
c-264 -47 -537 -140 -782 -266 -5 -2 -8 271 -8 607 0 695 -10 627 91 592z
m-7594 -1062 c205 -16 514 -79 683 -140 91 -33 239 -97 340 -147 l95 -48 3
-836 2 -837 -22 -16 c-146 -102 -252 -189 -345 -282 -61 -62 -114 -113 -117
-113 -3 0 -5 210 -6 466 0 426 -2 473 -20 555 -60 270 -196 475 -415 629 -156
109 -332 174 -507 187 l-88 6 0 288 0 288 23 4 c35 7 251 5 374 -4z m1361
-506 c195 -166 306 -311 406 -530 76 -169 134 -447 124 -598 l-3 -49 -80 -24
c-142 -42 -277 -93 -394 -148 -63 -30 -116 -54 -118 -54 -2 0 -3 326 -3 725 0
399 3 725 7 725 3 0 31 -21 61 -47z M8270 16595 c-63 -52 -118 -95 -122 -95
-21 0 -3 -29 35 -56 179 -128 536 -455 692 -634 386 -444 567 -900 582 -1470
2 -102 6 -190 8 -197 3 -8 39 0 117 29 62 22 131 47 153 55 70 25 69 21 57
205 -19 278 -50 450 -118 655 -105 319 -212 517 -442 824 -113 151 -384 420
-587 583 -172 138 -234 186 -248 192 -7 2 -64 -39 -127 -91z M12060 15366
c-92 -54 -150 -104 -222 -193 -163 -200 -285 -521 -310 -818 -22 -264 23 -646
177 -1495 129 -717 204 -1230 205 -1402 0 -61 -2 -68 -30 -91 -91 -77 -240
-108 -351 -72 -116 37 -202 122 -235 231 -15 51 -18 170 -5 247 10 62 -5 86
-45 72 -40 -14 -73 -74 -149 -265 -87 -218 -98 -241 -137 -285 -86 -98 -226
-98 -317 0 -67 73 -77 156 -35 301 14 49 30 94 35 101 18 21 6 68 -18 71 -57
8 -91 -31 -223 -260 -118 -205 -236 -298 -388 -306 -130 -7 -218 50 -241 156
-12 60 -9 85 30 211 28 88 29 95 13 112 -41 46 -91 10 -244 -174 -118 -143
-274 -247 -411 -277 -32 -7 -91 -11 -135 -8 -224 14 -338 172 -279 388 21 78
19 98 -9 111 -43 20 -93 -14 -156 -107 -91 -133 -168 -222 -247 -285 -83 -66
-129 -93 -143 -84 -15 9 -12 123 7 292 13 124 14 159 4 192 -10 35 -16 41 -40
41 -16 0 -33 -6 -39 -12 -5 -7 -20 -58 -32 -113 -33 -149 -103 -354 -161 -471
-66 -135 -137 -233 -290 -401 -155 -171 -169 -190 -169 -229 0 -56 18 -61 133
-35 115 26 204 59 258 97 39 27 84 101 123 204 l23 62 30 -54 c70 -123 176
-173 286 -134 95 34 159 118 221 290 6 17 11 12 37 -30 41 -65 125 -133 202
-164 54 -21 78 -24 182 -24 107 0 127 3 190 27 100 40 168 88 267 190 49 50
90 88 93 85 3 -2 9 -28 15 -56 24 -128 88 -210 199 -254 43 -17 77 -22 151
-22 170 -1 285 57 407 207 31 37 61 66 67 64 6 -2 23 -28 39 -59 39 -78 86
-129 148 -163 45 -24 69 -30 141 -33 77 -4 92 -2 145 22 95 44 150 107 227
263 l42 86 33 -59 c99 -174 302 -279 492 -255 122 16 226 79 311 191 90 117
176 325 215 517 22 108 25 506 5 678 -15 130 -99 644 -176 1080 -86 489 -128
805 -145 1090 -11 183 -11 165 0 305 22 285 118 535 268 693 30 31 50 57 45
57 -5 0 -43 -20 -84 -44z M7196 15097 c-62 -113 -156 -322 -156 -345 0 -11 14
-50 31 -88 81 -177 134 -396 173 -714 43 -342 48 -479 56 -1445 5 -592 12
-968 20 -1035 14 -131 43 -274 63 -320 l16 -35 -6 51 c-7 65 16 146 57 203 31
43 111 101 139 101 39 1 41 12 21 110 -35 174 -39 269 -41 970 -4 1194 -24
1584 -105 1995 -61 310 -164 617 -211 632 -6 2 -32 -34 -57 -80z M8136 15141
c-8 -15 -33 -73 -55 -128 l-40 -101 113 -113 c168 -170 246 -314 277 -512 11
-69 7 -271 -7 -379 -7 -54 5 -63 31 -24 26 40 73 187 92 286 20 111 22 297 4
385 -48 233 -184 464 -342 580 -26 19 -49 35 -53 35 -3 0 -12 -13 -20 -29z
M12422 14738 c-42 -63 -96 -159 -162 -287 l-43 -84 26 -81 c18 -54 30 -122 37
-206 14 -162 61 -526 111 -860 22 -146 49 -326 59 -400 11 -74 35 -243 55
-375 115 -778 123 -1196 30 -1557 -24 -91 -87 -265 -133 -366 -21 -47 -19 -82
5 -82 38 0 176 178 247 317 92 184 174 438 201 628 62 425 36 779 -135 1863
-34 218 -80 569 -80 614 l0 30 53 -43 c28 -23 73 -63 99 -88 46 -43 48 -44 67
-27 10 9 21 29 24 43 6 33 -27 131 -88 258 -83 175 -115 246 -192 425 -41 96
-89 208 -106 248 -17 39 -34 72 -38 72 -5 0 -21 -19 -37 -42z M10905 14405
c-126 -46 -311 -113 -410 -150 -99 -37 -247 -91 -330 -120 -82 -30 -265 -97
-405 -149 -140 -53 -284 -107 -320 -121 -287 -107 -648 -243 -710 -267 -41
-16 -109 -42 -150 -58 -41 -15 -160 -62 -263 -104 -305 -123 -303 -122 -342
-243 -15 -48 -34 -101 -42 -116 -8 -16 -13 -31 -11 -33 3 -2 74 27 160 65 170
76 356 150 723 291 132 51 267 103 300 115 109 43 865 325 871 325 3 0 33 11
67 24 132 52 364 139 652 245 395 144 366 130 394 188 19 39 71 178 71 190 0
8 -40 -5 -255 -82z M6491 13594 c-128 -55 -237 -225 -229 -355 5 -72 39 -117
130 -170 l69 -40 -19 -23 c-46 -59 -228 -205 -424 -340 -138 -95 -167 -121
-152 -136 10 -10 153 37 259 85 155 70 300 180 393 299 l53 66 32 -16 c17 -9
47 -28 65 -42 28 -21 35 -23 43 -11 39 58 63 148 48 185 -5 14 -31 39 -59 56
-27 17 -50 34 -50 37 0 3 7 42 15 86 27 150 14 248 -40 302 -37 37 -77 42
-134 17z m48 -233 c10 -24 15 -71 12 -114 -1 -17 -6 -16 -50 9 -28 14 -64 39
-82 54 -33 27 -33 27 -16 53 20 31 72 48 104 34 12 -5 27 -21 32 -36z M10165
13409 c-87 -117 -176 -259 -169 -270 16 -26 349 -289 366 -289 10 0 84 98 165
220 106 159 104 137 15 211 -136 113 -278 219 -293 219 -9 0 -46 -41 -84 -91z
M5419 13120 c-228 -58 -501 -296 -694 -605 -78 -125 -164 -301 -190 -390 -81
-279 -69 -441 44 -554 73 -73 145 -97 566 -186 176 -38 244 -61 282 -97 32
-30 29 -51 -12 -87 -35 -31 -180 -131 -189 -131 -3 0 -24 -13 -48 -29 -60 -40
-277 -153 -373 -194 -295 -126 -602 -185 -820 -158 -125 15 -196 35 -295 82
-206 98 -323 248 -391 500 -20 72 -23 109 -24 254 0 145 4 185 24 269 30 128
77 265 136 396 26 58 59 131 73 163 31 69 24 112 -18 112 -20 0 -35 -15 -72
-70 -147 -219 -281 -556 -339 -855 -33 -167 -33 -422 0 -570 47 -216 115 -343
261 -490 88 -89 119 -114 195 -152 248 -127 530 -146 872 -59 137 35 314 101
425 158 59 30 112 52 116 49 5 -3 13 -43 16 -88 31 -357 207 -613 481 -698 96
-30 239 -31 354 -1 348 91 763 421 1029 821 94 140 153 270 195 428 29 112 30
125 31 327 1 200 -1 215 -27 310 -79 281 -237 542 -396 650 -66 45 -78 50
-140 53 -55 3 -76 0 -111 -18 -150 -77 -313 -342 -380 -618 -46 -190 -13 -349
92 -448 96 -90 177 -110 492 -123 211 -9 253 -18 275 -60 8 -15 4 -28 -17 -60
-78 -115 -393 -430 -568 -568 -207 -162 -421 -262 -629 -293 -191 -29 -371 39
-465 174 -46 69 -80 168 -83 244 l-2 66 95 65 c125 86 302 263 364 363 89 144
147 363 132 501 -12 114 -67 196 -165 245 -66 33 -112 46 -369 102 -397 87
-478 146 -408 295 49 105 201 279 330 379 103 79 117 87 200 120 77 31 144 35
199 13 38 -17 82 -68 92 -109 15 -58 52 -61 81 -6 57 110 97 332 75 415 -15
55 -67 121 -113 146 -43 22 -136 30 -189 17z m1052 -1336 c51 -35 169 -195
169 -230 0 -14 -275 3 -322 21 -56 20 -98 65 -98 104 0 69 99 147 173 138 21
-3 56 -18 78 -33z M10565 12918 c-14 -18 -59 -81 -100 -140 -42 -60 -80 -108
-85 -108 -4 0 -21 11 -37 24 -102 85 -307 236 -321 236 -10 0 -43 -38 -77 -87
-138 -199 -175 -254 -175 -262 0 -15 366 -311 384 -311 12 1 107 125 171 223
21 31 41 57 44 57 7 0 105 -76 223 -173 99 -82 122 -95 142 -78 18 15 236 338
236 349 0 17 -350 302 -371 302 -5 0 -20 -15 -34 -32z M8333 12698 c-95 -129
-173 -249 -173 -267 0 -9 35 -43 78 -75 94 -73 160 -128 222 -183 69 -63 62
-66 162 72 72 98 158 231 158 243 0 24 -338 292 -369 292 -10 0 -44 -36 -78
-82z M3925 12233 c-131 -207 -212 -478 -203 -675 6 -127 43 -210 115 -257 83
-55 155 -35 220 63 58 85 110 291 74 291 -8 0 -30 -27 -50 -60 -30 -49 -43
-62 -72 -69 -75 -19 -148 49 -164 150 -14 95 39 314 123 509 22 51 28 74 21
87 -15 28 -25 22 -64 -39z M11053 10624 l-63 -56 0 -269 0 -269 -297 2 -298 3
-3 273 -2 273 -28 24 c-15 14 -31 25 -35 25 -5 0 -30 -19 -58 -42 l-49 -43 0
-257 0 -258 -1737 0 -1738 -1 -84 -80 c-46 -44 -81 -82 -79 -84 2 -3 1415 -5
3139 -5 l3134 -1 2 395 c1 218 -1 396 -5 396 -4 0 -17 -19 -30 -43 -12 -24
-48 -81 -80 -128 l-57 -84 -5 -180 -5 -180 -757 -3 -758 -2 0 308 c0 287 -1
310 -18 325 -10 10 -20 17 -23 17 -2 0 -32 -25 -66 -56z M4440 9969 c-23 -29
-68 -92 -102 -141 -33 -48 -64 -88 -68 -88 -4 0 -27 17 -51 38 -92 80 -282
232 -291 232 -12 0 -258 -348 -258 -364 0 -6 28 -34 63 -63 34 -28 118 -98
186 -154 l124 -103 46 51 c25 29 71 90 101 137 30 46 60 85 67 85 11 1 87 -57
169 -128 22 -20 49 -43 60 -51 11 -8 39 -32 63 -52 24 -21 48 -35 52 -32 14 8
111 140 188 256 60 89 70 111 62 126 -10 18 -161 143 -308 255 l-62 48 -41
-52z M3805 8444 c-108 -22 -139 -31 -195 -58 -170 -82 -262 -261 -231 -449 30
-183 123 -272 423 -408 164 -74 239 -130 281 -209 26 -49 28 -63 24 -121 -6
-87 -43 -158 -106 -199 -62 -42 -112 -53 -213 -48 -74 4 -96 9 -160 40 -78 39
-146 99 -210 185 -21 29 -43 53 -48 53 -6 0 -10 -33 -11 -72 0 -40 -4 -100 -9
-133 -9 -72 -3 -81 105 -130 105 -49 209 -69 350 -69 251 0 424 91 506 266 33
71 34 76 34 203 0 127 -1 132 -33 197 -22 45 -52 85 -95 124 -62 59 -81 69
-368 208 -91 44 -127 67 -167 109 -115 122 -91 283 53 360 60 33 215 31 305
-3 63 -23 134 -81 173 -139 9 -14 19 -22 22 -19 3 3 14 50 25 104 23 117 25
113 -92 162 -99 41 -274 63 -363 46z M1085 8432 c-25 -6 -33 -16 -56 -77 -98
-256 -410 -1000 -541 -1288 -49 -109 -88 -200 -86 -202 5 -5 228 -8 233 -3 2
2 11 39 20 82 16 79 96 345 117 391 l11 25 282 0 283 0 52 -132 c28 -73 62
-167 75 -208 13 -41 29 -94 37 -118 l13 -42 172 -4 c95 -2 175 -1 178 2 3 3
-6 24 -19 46 -32 55 -204 444 -311 702 -73 175 -257 621 -325 784 -18 43 -20
45 -62 47 -24 0 -56 -2 -73 -5z m119 -716 c47 -120 86 -221 86 -225 0 -3 -102
-6 -228 -6 -196 0 -227 2 -224 15 3 12 60 161 214 560 9 23 12 19 38 -50 15
-41 67 -173 114 -294z M11925 8433 l-40 -4 -44 -107 c-24 -59 -57 -138 -74
-177 -16 -38 -71 -173 -122 -300 -90 -224 -215 -515 -349 -819 -36 -82 -66
-154 -66 -160 0 -7 38 -11 111 -10 126 1 123 -1 133 82 6 48 105 363 127 404
9 17 32 18 289 18 l278 0 61 -152 c33 -84 73 -198 89 -253 l28 -100 172 -3
c110 -2 172 0 172 7 0 5 -26 65 -59 133 -71 150 -150 331 -271 628 -51 124
-118 286 -150 360 -31 74 -83 203 -115 285 -32 83 -62 156 -68 163 -9 12 -21
12 -102 5z m-20 -400 c10 -27 60 -154 111 -283 51 -129 94 -240 96 -247 2 -8
-57 -13 -224 -16 -166 -3 -228 -2 -228 7 0 6 41 115 91 241 50 127 100 256
111 288 11 31 21 57 23 57 1 0 10 -21 20 -47z M2174 8383 c26 -154 32 -1203 8
-1440 -4 -40 -6 -76 -5 -80 2 -5 207 -8 456 -8 l452 0 14 98 c7 54 11 100 9
103 -3 2 -36 -7 -74 -20 -103 -37 -172 -47 -355 -53 -161 -6 -167 -5 -188 16
l-22 22 5 647 c2 356 8 671 11 700 l7 52 -162 0 -163 0 7 -37z M4735 8373 c22
-136 25 -1170 4 -1397 -5 -60 -6 -112 -2 -115 4 -3 77 -5 162 -3 l153 3 -6 37
c-10 64 -26 706 -18 714 5 5 172 7 373 6 l364 -3 0 -295 c0 -162 -2 -332 -5
-378 l-5 -82 158 -3 159 -2 -6 40 c-25 195 -30 1167 -7 1425 4 47 6 88 4 93
-2 4 -74 7 -160 7 l-155 0 6 -57 c3 -32 8 -185 12 -340 l6 -283 -370 0 c-235
0 -372 4 -374 10 -3 11 9 601 14 640 l3 25 -159 3 -159 3 8 -48z M6537 8413
c-2 -5 0 -57 5 -118 8 -94 4 -1291 -4 -1396 l-3 -37 457 -5 c252 -3 460 -2
463 3 7 11 37 191 33 196 -2 1 -33 -8 -70 -21 -93 -34 -252 -55 -412 -55 -192
0 -176 -32 -176 341 l0 302 198 -7 c108 -3 225 -9 260 -12 l62 -6 0 87 0 87
-32 -6 c-50 -10 -477 -30 -484 -24 -3 4 -6 123 -7 266 -2 202 1 262 11 275 26
31 413 7 529 -32 l53 -18 0 62 c0 35 -3 77 -6 94 l-6 31 -434 0 c-238 0 -435
-3 -437 -7z M7860 7863 c0 -312 -5 -642 -12 -748 -6 -104 -12 -205 -12 -223
l-1 -33 103 -1 c57 0 105 2 107 4 2 2 -2 62 -10 133 -18 154 -35 586 -34 845
l0 185 45 -50 c25 -27 137 -153 249 -280 112 -126 294 -331 405 -455 110 -124
235 -266 278 -317 79 -94 92 -102 150 -87 l22 6 0 557 c0 505 6 697 26 939 l7
82 -108 0 -108 0 7 -87 c22 -263 26 -349 32 -678 6 -320 5 -358 -9 -345 -8 8
-59 65 -112 125 -54 61 -112 126 -129 145 -17 19 -77 87 -132 150 -56 63 -136
153 -178 200 -43 47 -157 176 -254 287 l-177 203 -77 0 -78 0 0 -557z M9646
8293 c11 -172 11 -1202 1 -1329 l-8 -102 243 -8 c289 -11 391 -8 518 13 135
22 249 66 355 137 222 151 330 395 312 706 -13 215 -71 355 -201 486 -97 96
-197 152 -344 191 -95 26 -105 27 -490 31 l-393 4 7 -129z m708 -18 c203 -56
338 -190 392 -390 25 -93 30 -319 9 -430 -44 -236 -190 -405 -398 -459 -80
-21 -230 -29 -312 -17 -115 17 -106 -46 -103 680 l3 626 45 7 c76 11 300 1
364 -17z M12670 8413 c0 -3 24 -65 54 -137 75 -180 265 -709 461 -1278 l58
-168 64 0 64 0 20 47 c11 26 83 234 160 463 188 561 212 630 219 630 3 0 29
-71 59 -158 52 -155 148 -428 279 -794 l67 -188 62 0 c53 0 64 3 73 21 6 11
58 158 115 327 90 267 250 733 314 917 32 90 113 289 123 300 19 21 3 25 -106
25 l-113 0 -12 -62 c-26 -131 -71 -300 -141 -523 -105 -334 -182 -565 -188
-565 -4 1 -26 56 -49 123 -23 67 -62 181 -88 252 -65 184 -137 392 -207 598
l-60 177 -66 0 -67 0 -190 -575 c-104 -316 -192 -575 -196 -575 -4 0 -16 28
-27 63 -11 34 -74 222 -141 417 -107 317 -167 519 -186 633 l-6 37 -174 0
c-96 0 -175 -3 -175 -7z M15167 8298 c9 -133 11 -1114 3 -1316 l-5 -123 153 0
c84 -1 155 1 156 2 2 2 -2 69 -10 149 -17 180 -19 1038 -3 1226 6 71 12 140
12 154 l2 25 -158 3 -159 3 9 -123z M4997 6244 c-11 -11 -9 -682 2 -688 5 -4
16 -3 25 0 15 6 16 42 14 347 -3 299 -5 342 -18 345 -9 1 -19 0 -23 -4z M9220
5900 c0 -329 1 -351 18 -348 16 3 17 28 17 348 0 320 -1 345 -17 348 -17 3
-18 -19 -18 -348z M8178 6167 c-136 -39 -212 -157 -187 -292 31 -166 223 -252
387 -174 l42 21 0 94 0 95 -37 -3 -38 -3 4 -82 c3 -95 -3 -103 -89 -103 -125
0 -200 95 -187 238 4 35 15 78 25 96 26 44 86 76 145 76 54 0 79 -10 119 -48
32 -29 39 -26 41 19 2 27 -3 34 -33 50 -47 25 -134 32 -192 16z M10700 6171
c-54 -12 -95 -37 -134 -83 -41 -47 -56 -91 -56 -163 0 -72 15 -116 56 -163 55
-64 104 -86 194 -85 105 0 159 26 173 80 7 32 -7 37 -29 11 -48 -53 -150 -64
-220 -23 -60 35 -89 97 -88 190 1 85 23 137 73 171 61 41 181 26 223 -29 l17
-22 10 28 c16 43 14 47 -32 67 -50 22 -137 32 -187 21z M13412 6169 c-194 -38
-259 -311 -105 -438 38 -31 116 -61 159 -61 85 0 184 49 184 91 0 23 -13 24
-31 2 -35 -41 -152 -57 -209 -28 -68 35 -109 135 -96 237 13 100 70 158 158
158 58 0 95 -13 130 -47 31 -30 33 -29 42 9 8 36 -19 61 -85 76 -57 13 -85 14
-147 1z M1900 6168 c0 -2 -2 -112 -3 -246 l-2 -242 133 0 c73 0 132 4 132 9 0
5 3 17 7 27 6 16 -1 16 -81 10 -63 -5 -92 -4 -102 5 -13 10 -15 48 -13 223 l1
211 -36 3 c-20 2 -36 2 -36 0z M2278 6163 c-2 -4 -4 -84 -3 -178 1 -187 8
-217 62 -268 34 -32 120 -54 173 -44 53 10 97 42 119 85 17 34 20 62 22 223
l2 184 -24 0 -24 0 0 -180 c0 -159 -3 -184 -19 -212 -30 -49 -96 -68 -160 -43
-53 20 -61 48 -66 250 l-5 185 -37 3 c-20 2 -38 -1 -40 -5z M2783 6155 c4 -8
38 -62 77 -120 l71 -106 -40 -63 c-23 -34 -59 -86 -81 -116 -22 -29 -40 -57
-40 -62 0 -4 13 -8 29 -8 25 0 36 12 91 95 35 53 67 98 71 100 4 3 36 -40 71
-95 l63 -100 48 0 c56 0 61 -15 -52 149 l-78 115 73 102 c41 56 74 107 74 113
0 6 -10 11 -23 11 -18 0 -38 -20 -86 -90 -34 -49 -64 -90 -66 -90 -2 0 -29 41
-61 90 l-57 90 -44 0 c-36 0 -44 -3 -40 -15z M3294 6156 c-3 -8 -4 -90 -2
-183 3 -162 4 -170 30 -214 36 -60 82 -83 168 -84 72 0 118 20 153 66 24 33
37 155 34 314 l-2 110 -25 0 -25 0 -5 -190 c-3 -122 -9 -198 -17 -211 -18 -31
-66 -47 -119 -41 -94 10 -116 67 -113 297 l1 145 -36 3 c-25 2 -38 -1 -42 -12z
M3850 6164 c-1 -5 -1 -115 -1 -244 l0 -235 38 0 38 0 0 100 c0 100 0 100 26
103 22 3 33 -9 93 -103 l68 -105 44 0 c24 0 44 3 44 6 0 3 -13 23 -29 43 -15
20 -48 67 -72 105 -33 54 -40 71 -29 74 8 3 30 20 48 38 27 27 32 39 32 78 0
59 -21 101 -62 122 -35 18 -238 33 -238 18z m166 -49 c45 -19 67 -67 53 -118
-12 -46 -48 -69 -100 -65 l-41 3 -2 93 c-1 51 0 95 3 97 9 10 52 5 87 -10z
M4250 6164 c0 -3 37 -64 82 -136 l81 -130 -2 -109 -1 -109 44 0 43 0 -4 103
-5 103 81 133 c44 73 81 136 81 142 0 5 -11 9 -24 9 -19 0 -34 -19 -87 -110
-35 -60 -67 -110 -71 -110 -4 0 -33 46 -64 103 -32 56 -63 105 -69 109 -12 9
-85 11 -85 2z M5432 5928 l3 -243 38 -3 37 -3 0 120 0 121 115 0 114 0 3 -117
3 -118 38 -3 37 -3 0 246 0 246 -37 -3 -38 -3 -3 -102 -3 -103 -114 0 -114 0
-3 103 -3 102 -38 3 -37 3 2 -243z M5989 6163 c0 -4 0 -114 0 -243 l0 -235
127 -3 c131 -3 143 1 144 38 0 14 -11 15 -77 8 -125 -13 -123 -14 -123 92 l0
90 79 0 c63 0 80 3 85 16 11 28 -4 34 -85 34 l-80 0 3 83 3 82 91 -4 c90 -3
91 -3 89 20 -2 24 -3 24 -128 27 -70 1 -127 -1 -128 -5z M6394 6156 c-4 -9 -4
-119 -2 -244 l5 -227 42 -3 42 -3 -1 78 c-2 135 -3 133 25 133 20 0 37 -19 93
-102 l68 -103 47 -3 c48 -3 59 6 33 27 -8 7 -34 42 -57 79 -24 37 -52 78 -63
91 -18 20 -19 25 -6 29 31 11 79 69 85 105 9 48 -19 105 -64 131 -48 28 -237
37 -247 12z m199 -56 c75 -59 24 -170 -78 -170 l-35 0 0 95 0 95 44 0 c28 0
52 -7 69 -20z M6880 6166 c-3 -2 -4 -113 -2 -246 l3 -241 37 3 37 3 0 240 0
240 -35 3 c-20 2 -38 1 -40 -2z M7087 6164 c-4 -4 -7 -17 -7 -30 0 -22 2 -22
76 -17 l75 6 -2 -219 -1 -219 36 -3 36 -3 0 222 0 222 76 -6 75 -7 -3 28 -3
27 -176 3 c-96 1 -178 -1 -182 -4z M7639 6093 c-17 -43 -61 -148 -96 -233 -35
-85 -67 -161 -70 -167 -3 -9 6 -13 30 -13 35 0 35 0 59 78 l24 77 49 5 c28 3
68 3 91 2 40 -4 41 -4 67 -73 15 -38 27 -73 27 -79 0 -5 23 -10 50 -10 28 0
50 2 50 5 0 3 -13 31 -28 63 -16 31 -62 139 -103 239 -64 157 -77 183 -96 183
-17 0 -27 -15 -54 -77z m51 -58 c0 -8 11 -40 25 -71 14 -31 25 -60 25 -65 0
-5 -30 -9 -66 -9 -59 0 -65 2 -59 18 4 9 18 47 32 84 23 61 43 81 43 43z
M8580 5925 l0 -245 135 0 c75 0 135 4 135 9 0 5 3 17 6 26 6 14 -4 16 -92 13
l-99 -3 -3 97 -3 96 81 -5 80 -5 0 26 c0 26 -1 26 -80 26 l-81 0 3 82 3 81 88
-2 87 -2 0 25 0 26 -130 0 -130 0 0 -245z M9655 6160 c-4 -6 -5 -117 -3 -246
l3 -234 133 0 c73 0 132 4 132 9 0 5 3 17 7 27 6 16 -1 16 -79 10 -120 -10
-118 -11 -118 95 l0 89 79 0 c69 0 79 2 84 19 3 11 2 22 -1 25 -3 3 -41 6 -84
6 l-78 0 0 80 0 80 95 0 c93 0 95 1 91 23 -3 21 -7 22 -129 25 -82 2 -128 -1
-132 -8z M10030 6159 c0 -5 34 -58 76 -120 89 -128 90 -110 -11 -244 -84 -112
-85 -115 -47 -115 27 0 38 10 97 95 36 53 70 93 74 91 4 -3 35 -46 67 -95 l59
-91 48 0 c44 0 60 11 37 25 -12 7 -148 208 -156 230 -4 9 24 57 65 116 39 55
71 104 71 110 0 5 -10 9 -22 9 -23 -1 -29 -7 -109 -122 -23 -32 -44 -58 -47
-58 -4 0 -20 23 -37 52 -67 113 -81 128 -125 126 -22 -1 -40 -5 -40 -9z
M11070 5935 c0 -129 0 -238 0 -242 0 -5 61 -9 135 -11 80 -1 135 1 135 7 0 5
3 17 7 26 5 16 -3 17 -98 14 l-104 -4 0 95 0 94 83 -3 82 -3 0 26 c0 26 0 26
-85 26 l-85 0 0 79 c0 54 4 80 13 83 6 2 47 2 90 -1 43 -4 80 -4 83 -2 2 2 4
15 4 28 0 23 0 23 -130 23 l-130 0 0 -235z M11480 5941 c0 -126 -3 -236 -6
-245 -5 -14 10 -16 134 -16 135 0 140 1 145 22 3 12 4 24 2 28 -2 3 -41 2 -87
-2 -46 -4 -89 -6 -95 -3 -9 3 -13 61 -15 222 l-3 218 -37 3 -38 3 0 -230z
M11880 6164 c0 -2 0 -111 -1 -241 l0 -238 136 -3 135 -3 0 27 0 27 -90 -6
c-49 -3 -92 -2 -94 2 -3 4 -8 104 -10 222 l-5 214 -36 2 c-19 0 -35 -1 -35 -3z
M12280 6168 c-1 -2 -2 -112 -3 -246 l-2 -242 138 0 c76 0 137 4 137 9 0 5 3
17 6 26 6 14 -5 16 -97 13 l-104 -3 0 95 0 95 80 0 c75 0 80 1 83 23 3 21 1
22 -80 22 l-83 0 1 75 c1 42 4 79 8 82 4 4 45 6 91 4 l85 -3 0 26 0 26 -130 0
c-71 0 -130 -1 -130 -2z M12690 5935 c0 -129 0 -238 0 -242 0 -5 12 -8 26 -8
l26 0 -1 120 c-1 66 -4 146 -7 178 -4 31 -3 57 2 56 9 0 42 -37 218 -241 55
-65 106 -118 112 -118 15 0 22 99 20 315 l-1 170 -25 0 -24 0 2 -168 c1 -92
-1 -167 -5 -167 -3 0 -11 6 -17 14 -6 8 -73 84 -149 170 -89 100 -145 156
-158 156 -18 0 -19 -9 -19 -235z M13787 6164 c-4 -4 -7 -115 -7 -246 l0 -238
134 0 c113 0 135 2 140 16 13 34 7 36 -91 33 l-98 -4 -3 96 -3 96 81 -5 80 -5
0 27 c0 26 0 26 -80 26 l-81 0 3 83 3 82 93 -4 94 -3 -4 23 c-3 24 -5 24 -129
27 -69 1 -128 -1 -132 -4z"/>
</g>
</svg>
